{"title":"Roots (1977) (Disc 2-6)(AUDIO 4)(SUBS 9) 2Lions-Team","uid":5681972,"size":3976016876,"categoryP":"video","categoryS":"movies_dvdr","magnet":"?xt=urn:btih:3252220df7e8471a945d2daf599228fc7ba518a5&amp;dn=Roots+%281977%29+%28Disc+2-6%29%28AUDIO+4%29%28SUBS+9%29+2Lions-Team&amp;tr=udp%3A%2F%2Ftracker.openbittorrent.com%3A80&amp;tr=udp%3A%2F%2Fopen.demonii.com%3A1337&amp;tr=udp%3A%2F%2Ftracker.coppersurfer.tk%3A6969&amp;tr=udp%3A%2F%2Fexodus.desync.com%3A6969","seeders":0,"leechers":1,"uploader":"Pioen","files":18,"time":1278856160,"description":"Roots (1977)  (Disc 2-6) \n\n \nRoots (1977)\nVerenigde Staten\nDrama\n573 minuten (tv-serie, 8 delen)\n\ngeregisseerd door Marvin J. Chomsky, John Erman, David Greene en Gilbert Moses\nmet LeVar Burton, Lorne Greene en Ben Vereen\n\nKunta Kinte wordt ontvoerd uit zijn dorpje in Afrika, verkocht aan slavenhandelaren en naar Amerika verscheept. Hij tracht te ontsnappen, maar het is tevergeefs. Op de plantage waar hij werkt volgen we zijn leven, liefde, vriendschap en ontberingen, die beinvloed worden door onder meer revoluties, de Burgeroorlog en slaven opstanden\n\nEgnlish\n\n\nA saga of African-American life, based on Alex Haley's family history. Kunta Kinte is abducted from his African village, sold into slavery, and taken to America. He makes several escape attempts until he is finally caught and maimed. He marries Bell, his plantation's cook, and they have a daughter, Kizzy, who is eventually sold away from them. Kizzy has a son by her new master, and the boy grows up to become Chicken George, a legendary cock fighter who leads his family into freedom. Throughout the series, the family observes notable events in U.S. history, such as the Revolutionary and Civil Wars, slave uprisings, and emancipation.\n\n\n\nSpotinformatie \nCategorie : Beeld \nFormaat : DVD5 \nBron : Retail\nAudio : English, French, German, Spanish,  \nSubs : Dutch, English, French, German, Swedish, Norwegisn, Danish, Polish, Turkish, \nMenu : Yes\nExtra : Yes\n\nFormat                           : MPEG-PS\nFile size                        : 1 024 MiB\nDuration                         : 24mn 53s\nOverall bit rate                 : 5 750 Kbps\nWriting library                  : encoded by TMPGEnc (ver. 2.524.63.181)\n\nVideo\nID                               : 224 (0xE0)\nFormat                           : MPEG Video\nFormat version                   : Version 2\nFormat profile                   : Main@Main\nFormat settings, Matrix          : Default\nDuration                         : 24mn 53s\nBit rate mode                    : Variable\nBit rate                         : 4 562 Kbps\nNominal bit rate                 : 7 250 Kbps\nWidth                            : 720 pixels\nHeight                           : 576 pixels\nDisplay aspect ratio             : 4/3\nFrame rate                       : 25.000 fps\nStandard                         : PAL\nColorimetry                      : 4:2:0\nBits/(Pixel*Frame)               : 0.440\nStream size                      : 812 MiB (79%)\nWriting library                  : TMPGEnc 2.524.63.181\n\nAudio #1\nID                               : 128 (0x80)\nFormat                           : AC-3\nFormat/Info                      : Audio Coding 3\nDuration                         : 24mn 53s\nBit rate mode                    : Constant\nBit rate                         : 192 Kbps\nChannel(s)                       : 1 channel\nChannel positions                : C\nSampling rate                    : 48.0 KHz\nVideo delay                      : -228ms\nStream size                      : 34.2 MiB (3%)\n\n\n \nGenre : Drama\nTV Shows/Series\nROOTS 1\nROOTS 2\nROOTS 3\nROOTS 4\nROOTS 5\nROOTS BONUS 6\n \nGenre : Drama\nTV Shows/Series\n\n\n\nWeblink : &lt;a href=&quot; http://www.moviemeter.nl/forum/12/6841&quot; rel=&quot;nofollow&quot; target=&quot;_NEW&quot;&gt; http://www.moviemeter.nl/forum/12/6841&lt;/a&gt; \nWeblink : &lt;a href=&quot; http://www.imdb.com/title/tt0075572&quot; rel=&quot;nofollow&quot; target=&quot;_NEW&quot;&gt; http://www.imdb.com/title/tt0075572&lt;/a&gt; \n\n \n*****************************************\n\nBrought to you by \nPioen\n\n2Lions Team\n\nmeer zien??\nKom dan eens kijken op ons forum \n\n\n\n\n2Lions the site to be for all your Dutch MOVIES and more\n\n******************************************\n\n\nDON T HIT AND RUN Niet gelijk afhaken als de FILM binnen is blijf seeden. \n\nDon`t quit after you finished the download, but keep seeding\n\n\nThere are fake torrents from uploaders who use our team name.\nThose are not ours, or members from our team.\nWe 2Lions-Team are not responsible for the fake posts on our name\n\nWij 2Lions-Team zijn niet verantwoordelijk voor die zieke FAKE posten die op onze naam worden gedaan  \n \n","torrent":{"xt":"urn:btih:3252220df7e8471a945d2daf599228fc7ba518a5","amp;dn":"Roots+%281977%29+%28Disc+2-6%29%28AUDIO+4%29%28SUBS+9%29+2Lions-Team","amp;tr":["udp%3A%2F%2Ftracker.openbittorrent.com%3A80","udp%3A%2F%2Fopen.demonii.com%3A1337","udp%3A%2F%2Ftracker.coppersurfer.tk%3A6969","udp%3A%2F%2Fexodus.desync.com%3A6969"],"infoHash":"3252220df7e8471a945d2daf599228fc7ba518a5","infoHashBuffer":{"type":"Buffer","data":[50,82,34,13,247,232,71,26,148,93,45,175,89,146,40,252,123,165,24,165]},"announce":[],"urlList":[]}}